<?xml version="1.0" encoding="UTF-8" standalone="no"?>
<svg
   xmlns:dc="http://purl.org/dc/elements/1.1/"
   xmlns:cc="http://creativecommons.org/ns#"
   xmlns:rdf="http://www.w3.org/1999/02/22-rdf-syntax-ns#"
   xmlns:svg="http://www.w3.org/2000/svg"
   xmlns="http://www.w3.org/2000/svg"
   xmlns:sodipodi="http://sodipodi.sourceforge.net/DTD/sodipodi-0.dtd"
   xmlns:inkscape="http://www.inkscape.org/namespaces/inkscape"
   version="1.1"
   id="svg3610"
   viewBox="0 0 618.83856 618.83857"
   height="618.83856"
   width="618.83856"
   sodipodi:docname="ad-logo.svg"
   inkscape:version="0.92.1 r15371">
  <metadata
     id="metadata9">
    <rdf:RDF>
      <cc:Work
         rdf:about="">
        <dc:format>image/svg+xml</dc:format>
        <dc:type
           rdf:resource="http://purl.org/dc/dcmitype/StillImage" />
        <dc:title></dc:title>
      </cc:Work>
    </rdf:RDF>
  </metadata>
  <sodipodi:namedview
     pagecolor="#ffffff"
     bordercolor="#666666"
     borderopacity="1"
     objecttolerance="10"
     gridtolerance="10"
     guidetolerance="10"
     inkscape:pageopacity="0"
     inkscape:pageshadow="2"
     inkscape:window-width="1637"
     inkscape:window-height="751"
     id="namedview7"
     showgrid="false"
     inkscape:zoom="0.54278764"
     inkscape:cx="19.250551"
     inkscape:cy="500.29155"
     inkscape:window-x="0"
     inkscape:window-y="0"
     inkscape:window-maximized="0"
     inkscape:current-layer="svg3610"
     fit-margin-top="0"
     fit-margin-left="0"
     fit-margin-right="0"
     fit-margin-bottom="0" />
  <defs
     id="defs3612" />
  <g
     style="clip-rule:evenodd;fill-rule:evenodd;stroke-linejoin:round;stroke-miterlimit:1.41420996"
     id="g33"
     transform="matrix(1.2087097,0,0,1.2087097,-0.69604585,0.00294977)">
    <g
       id="g18"
       transform="translate(-545)">
      <g
         transform="matrix(1.44661,0,0,1.44661,1107.62,830.317)"
         id="Fill-Color">
        <rect
           id="rect11"
           style="fill:none"
           height="353.91901"
           width="353.91901"
           y="-573.97601"
           x="-388.52499" />
        <g
           id="g15"
           transform="matrix(0.691274,0,0,0.691274,-765.667,-573.976)">
          <path
             id="path13"
             style="fill:#ff0040"
             d="m 909.676,42.202 c 58.326,0 105.674,47.352 105.674,105.677 v 216.223 c 0,58.325 -47.349,105.677 -105.674,105.677 H 693.453 c -58.324,0 -105.677,-47.352 -105.677,-105.677 V 147.879 c 0,-58.325 47.352,-105.677 105.677,-105.677 z M 781.982,304.874 c 0.186,-0.006 0.372,-0.006 0.557,-0.018 0.371,-0.025 0.739,-0.075 1.103,-0.149 1.093,-0.222 2.137,-0.665 3.057,-1.296 0.765,-0.525 1.441,-1.179 1.992,-1.927 0.441,-0.598 0.801,-1.255 1.068,-1.948 0.334,-0.866 0.521,-1.788 0.552,-2.716 0.037,-1.115 -0.152,-2.234 -0.552,-3.274 -0.267,-0.693 -0.627,-1.35 -1.068,-1.948 -0.661,-0.898 -1.503,-1.659 -2.462,-2.227 -0.799,-0.473 -1.677,-0.811 -2.587,-0.996 -0.485,-0.099 -0.611,-0.099 -1.103,-0.149 -0.186,-0.006 -0.371,-0.012 -0.557,-0.018 h -96.174 c -0.186,0.006 -0.371,0.006 -0.557,0.018 -0.37,0.025 -0.739,0.075 -1.103,0.149 -1.092,0.222 -2.137,0.665 -3.056,1.296 -0.766,0.525 -1.442,1.179 -1.993,1.927 -0.441,0.598 -0.801,1.255 -1.068,1.948 -0.267,0.693 -0.44,1.422 -0.515,2.161 -0.111,1.109 0.002,2.238 0.333,3.303 0.33,1.065 0.875,2.06 1.595,2.911 0.72,0.852 1.611,1.555 2.605,2.058 0.829,0.419 1.728,0.697 2.648,0.821 0.491,0.066 0.617,0.058 1.111,0.074 h 46.641 l -23.654,57.483 c -0.056,0.148 -0.117,0.295 -0.168,0.445 -0.104,0.3 -0.191,0.606 -0.26,0.915 -0.276,1.241 -0.264,2.54 0.036,3.775 0.224,0.926 0.608,1.811 1.131,2.607 0.61,0.93 1.406,1.734 2.329,2.352 0.659,0.442 1.381,0.788 2.138,1.026 0.757,0.239 1.548,0.368 2.341,0.383 0.952,0.018 1.907,-0.128 2.809,-0.431 1.054,-0.354 2.034,-0.919 2.867,-1.655 0.714,-0.63 1.318,-1.383 1.778,-2.217 0.205,-0.371 0.24,-0.472 0.412,-0.858 l 26.264,-63.825 z m -7.04,-56.206 38.616,-94.677 88.054,214.699 c 0.124,0.263 0.235,0.533 0.373,0.789 0.552,1.025 1.319,1.93 2.241,2.643 0.921,0.712 1.991,1.226 3.122,1.502 1.132,0.276 2.318,0.311 3.464,0.103 0.859,-0.156 1.692,-0.448 2.461,-0.862 0.768,-0.414 1.47,-0.949 2.074,-1.58 0.603,-0.631 1.105,-1.357 1.484,-2.143 0.759,-1.578 1.003,-3.382 0.69,-5.104 -0.139,-0.765 -0.233,-0.942 -0.489,-1.672 l -95.785,-233.55 c -0.324,-0.687 -0.38,-0.876 -0.808,-1.508 -0.963,-1.423 -2.365,-2.528 -3.974,-3.132 -0.715,-0.268 -0.911,-0.279 -1.655,-0.433 -0.284,-0.029 -0.568,-0.058 -0.852,-0.088 -0.761,0.001 -0.955,-0.028 -1.709,0.09 -0.847,0.133 -1.672,0.396 -2.439,0.78 -1.023,0.511 -1.936,1.234 -2.669,2.112 -0.367,0.439 -0.687,0.914 -0.956,1.419 -0.134,0.251 -0.243,0.516 -0.364,0.775 L 756.942,248.668 H 703.41 c -0.494,0.016 -0.62,0.008 -1.111,0.074 -0.92,0.124 -1.818,0.403 -2.647,0.822 -0.995,0.502 -1.886,1.206 -2.606,2.057 -0.599,0.709 -1.079,1.519 -1.412,2.385 -0.401,1.04 -0.59,2.16 -0.553,3.274 0.038,1.114 0.301,2.218 0.77,3.229 0.313,0.674 0.716,1.305 1.195,1.872 0.48,0.568 1.035,1.07 1.648,1.491 0.919,0.63 1.964,1.074 3.056,1.296 0.364,0.074 0.733,0.123 1.103,0.148 0.186,0.012 0.372,0.012 0.557,0.019 h 96.174 c 0.187,-0.007 0.372,-0.007 0.557,-0.019 0.371,-0.025 0.739,-0.074 1.103,-0.148 1.093,-0.222 2.138,-0.666 3.057,-1.296 0.765,-0.526 1.441,-1.18 1.992,-1.928 0.441,-0.598 0.801,-1.255 1.068,-1.948 0.334,-0.866 0.521,-1.788 0.552,-2.716 0.037,-1.114 -0.151,-2.234 -0.552,-3.274 -0.267,-0.693 -0.627,-1.35 -1.068,-1.948 -0.661,-0.897 -1.503,-1.659 -2.462,-2.227 -0.799,-0.473 -1.677,-0.811 -2.587,-0.996 -0.485,-0.099 -0.611,-0.099 -1.103,-0.149 l -0.557,-0.018 z"
             inkscape:connector-curvature="0" />
        </g>
      </g>
    </g>
  </g>
</svg>
